<svg width="16" height="27" viewBox="0 0 16 27" fill="none" xmlns="http://www.w3.org/2000/svg">
<path d="M6.33025 1.2291C6.37423 1.2291 6.40989 1.19345 6.40989 1.14946C6.40989 1.10548 6.37423 1.06982 6.33025 1.06982C6.28627 1.06982 6.25061 1.10548 6.25061 1.14946C6.25061 1.19345 6.28627 1.2291 6.33025 1.2291Z" fill="black"/>
<path d="M6.56316 1.2291C6.60714 1.2291 6.6428 1.19345 6.6428 1.14946C6.6428 1.10548 6.60714 1.06982 6.56316 1.06982C6.51918 1.06982 6.48352 1.10548 6.48352 1.14946C6.48352 1.19345 6.51918 1.2291 6.56316 1.2291Z" fill="black"/>
<path d="M6.79546 1.2291C6.83944 1.2291 6.8751 1.19345 6.8751 1.14946C6.8751 1.10548 6.83944 1.06982 6.79546 1.06982C6.75147 1.06982 6.71582 1.10548 6.71582 1.14946C6.71582 1.19345 6.75147 1.2291 6.79546 1.2291Z" fill="black"/>
<path d="M7.02788 1.2291C7.07186 1.2291 7.10752 1.19345 7.10752 1.14946C7.10752 1.10548 7.07186 1.06982 7.02788 1.06982C6.9839 1.06982 6.94824 1.10548 6.94824 1.14946C6.94824 1.19345 6.9839 1.2291 7.02788 1.2291Z" fill="black"/>
<path d="M7.26067 1.2291C7.30465 1.2291 7.34031 1.19345 7.34031 1.14946C7.34031 1.10548 7.30465 1.06982 7.26067 1.06982C7.21669 1.06982 7.18103 1.10548 7.18103 1.14946C7.18103 1.19345 7.21669 1.2291 7.26067 1.2291Z" fill="black"/>
<path d="M7.49346 1.2291C7.53744 1.2291 7.57309 1.19345 7.57309 1.14946C7.57309 1.10548 7.53744 1.06982 7.49346 1.06982C7.44947 1.06982 7.41382 1.10548 7.41382 1.14946C7.41382 1.19345 7.44947 1.2291 7.49346 1.2291Z" fill="black"/>
<path d="M7.72588 1.2291C7.76986 1.2291 7.80552 1.19345 7.80552 1.14946C7.80552 1.10548 7.76986 1.06982 7.72588 1.06982C7.68189 1.06982 7.64624 1.10548 7.64624 1.14946C7.64624 1.19345 7.68189 1.2291 7.72588 1.2291Z" fill="black"/>
<path d="M7.95818 1.2291C8.00216 1.2291 8.03782 1.19345 8.03782 1.14946C8.03782 1.10548 8.00216 1.06982 7.95818 1.06982C7.91419 1.06982 7.87854 1.10548 7.87854 1.14946C7.87854 1.19345 7.91419 1.2291 7.95818 1.2291Z" fill="black"/>
<path d="M8.19048 1.2291C8.23446 1.2291 8.27012 1.19345 8.27012 1.14946C8.27012 1.10548 8.23446 1.06982 8.19048 1.06982C8.14649 1.06982 8.11084 1.10548 8.11084 1.14946C8.11084 1.19345 8.14649 1.2291 8.19048 1.2291Z" fill="black"/>
<path d="M8.42436 1.2291C8.46835 1.2291 8.504 1.19345 8.504 1.14946C8.504 1.10548 8.46835 1.06982 8.42436 1.06982C8.38038 1.06982 8.34473 1.10548 8.34473 1.14946C8.34473 1.19345 8.38038 1.2291 8.42436 1.2291Z" fill="black"/>
<path d="M8.65667 1.2291C8.70065 1.2291 8.7363 1.19345 8.7363 1.14946C8.7363 1.10548 8.70065 1.06982 8.65667 1.06982C8.61268 1.06982 8.57703 1.10548 8.57703 1.14946C8.57703 1.19345 8.61268 1.2291 8.65667 1.2291Z" fill="black"/>
<path d="M8.88909 1.2291C8.93307 1.2291 8.96872 1.19345 8.96872 1.14946C8.96872 1.10548 8.93307 1.06982 8.88909 1.06982C8.8451 1.06982 8.80945 1.10548 8.80945 1.14946C8.80945 1.19345 8.8451 1.2291 8.88909 1.2291Z" fill="black"/>
<path d="M9.12139 1.2291C9.16537 1.2291 9.20102 1.19345 9.20102 1.14946C9.20102 1.10548 9.16537 1.06982 9.12139 1.06982C9.0774 1.06982 9.04175 1.10548 9.04175 1.14946C9.04175 1.19345 9.0774 1.2291 9.12139 1.2291Z" fill="black"/>
<path d="M9.35417 1.2291C9.39816 1.2291 9.43381 1.19345 9.43381 1.14946C9.43381 1.10548 9.39816 1.06982 9.35417 1.06982C9.31019 1.06982 9.27454 1.10548 9.27454 1.14946C9.27454 1.19345 9.31019 1.2291 9.35417 1.2291Z" fill="black"/>
<path d="M13.719 0H1.75115C0.783786 0 0 0.783835 0 1.75115V25.2489C0 26.2162 0.783836 27 1.75115 27H13.7186C14.6859 27 15.4697 26.2161 15.4697 25.2489V1.75115C15.4702 0.783835 14.6864 0 13.719 0ZM12.4947 1.03991C12.6014 1.03991 12.6881 1.12669 12.6881 1.23335C12.6881 1.34051 12.6009 1.42679 12.4947 1.42679C12.3875 1.42679 12.3013 1.34001 12.3013 1.23335C12.3008 1.12669 12.3875 1.03991 12.4947 1.03991ZM5.66363 0.872945H9.98863C10.1418 0.872945 10.2651 0.996716 10.2651 1.1489C10.2651 1.30158 10.1418 1.42486 9.98863 1.42486H5.66363C5.51045 1.42486 5.38718 1.30109 5.38718 1.1489C5.38767 0.996766 5.51045 0.872945 5.66363 0.872945ZM3.89919 25.8483H3.47338C3.44492 25.8483 3.42216 25.825 3.42216 25.7966C3.42216 25.7686 3.44492 25.7449 3.47338 25.7449H3.89919C3.9281 25.7449 3.95086 25.7686 3.95086 25.7966C3.95037 25.825 3.92761 25.8483 3.89919 25.8483ZM3.89919 25.6405H3.47338C3.44492 25.6405 3.42216 25.6178 3.42216 25.5893C3.42216 25.5609 3.44492 25.5377 3.47338 25.5377H3.89919C3.9281 25.5377 3.95086 25.5609 3.95086 25.5893C3.95037 25.6178 3.92761 25.6405 3.89919 25.6405ZM4.25766 25.7757C4.25766 25.8369 4.20832 25.8867 4.14718 25.8867C4.08599 25.8867 4.0362 25.8369 4.0362 25.7757V25.4101H3.33583V25.7757C3.33583 25.8369 3.28653 25.8867 3.22534 25.8867C3.1642 25.8867 3.11442 25.8369 3.11442 25.7757V25.2996C3.11442 25.2384 3.1642 25.1887 3.22534 25.1887H4.14718C4.20832 25.1887 4.25766 25.2384 4.25766 25.2996V25.7757ZM9.12139 25.7416C9.12139 25.9833 8.92507 26.1792 8.68323 26.1792H6.768C6.52566 26.1792 6.32984 25.9833 6.32984 25.7416V25.3584C6.32984 25.1166 6.52566 24.9207 6.768 24.9207H8.68323C8.92507 24.9207 9.12139 25.1166 9.12139 25.3584V25.7416ZM11.9802 25.9075H11.6326C11.5715 25.9075 11.5221 25.8577 11.5221 25.7966C11.5221 25.7354 11.5714 25.6861 11.6326 25.6861H11.9802C12.0552 25.6861 12.1158 25.6277 12.1158 25.5561C12.1158 25.4845 12.0551 25.4267 11.9802 25.4267H11.6872C11.6763 25.4419 11.6625 25.4495 11.6379 25.4514C11.6317 25.4546 11.6213 25.4499 11.6137 25.4466L11.433 25.3702C11.4112 25.3608 11.3965 25.3395 11.3965 25.3157C11.3965 25.292 11.4108 25.2702 11.4326 25.2612L11.6133 25.1848C11.6351 25.1754 11.6612 25.1806 11.6782 25.1976C11.6806 25.2 11.683 25.2024 11.6849 25.2052H11.9803C12.1771 25.2052 12.3369 25.3631 12.3369 25.5566C12.3368 25.7501 12.177 25.9075 11.9802 25.9075ZM14.3023 24.3731H1.02136V2.70001H14.3023V24.3731V24.3731Z" fill="black"/>
</svg>
