<svg width="28" height="17" viewBox="0 0 28 17" fill="none" xmlns="http://www.w3.org/2000/svg">
<path d="M1.46396 9.90461C1.46396 9.86063 1.42831 9.82498 1.38433 9.82498C1.34034 9.82498 1.30469 9.86063 1.30469 9.90461C1.30469 9.9486 1.34034 9.98425 1.38433 9.98425C1.42831 9.98425 1.46396 9.9486 1.46396 9.90461Z" fill="black"/>
<path d="M1.46396 9.6717C1.46396 9.62772 1.42831 9.59207 1.38433 9.59207C1.34034 9.59207 1.30469 9.62772 1.30469 9.6717C1.30469 9.71569 1.34034 9.75134 1.38433 9.75134C1.42831 9.75134 1.46396 9.71569 1.46396 9.6717Z" fill="black"/>
<path d="M1.46396 9.43941C1.46396 9.39542 1.42831 9.35977 1.38433 9.35977C1.34034 9.35977 1.30469 9.39542 1.30469 9.43941C1.30469 9.48339 1.34034 9.51904 1.38433 9.51904C1.42831 9.51904 1.46396 9.48339 1.46396 9.43941Z" fill="black"/>
<path d="M1.46396 9.20698C1.46396 9.163 1.42831 9.12735 1.38433 9.12735C1.34034 9.12735 1.30469 9.163 1.30469 9.20698C1.30469 9.25097 1.34034 9.28662 1.38433 9.28662C1.42831 9.28662 1.46396 9.25097 1.46396 9.20698Z" fill="black"/>
<path d="M1.46396 8.97419C1.46396 8.93021 1.42831 8.89456 1.38433 8.89456C1.34034 8.89456 1.30469 8.93021 1.30469 8.97419C1.30469 9.01818 1.34034 9.05383 1.38433 9.05383C1.42831 9.05383 1.46396 9.01818 1.46396 8.97419Z" fill="black"/>
<path d="M1.46396 8.74141C1.46396 8.69742 1.42831 8.66177 1.38433 8.66177C1.34034 8.66177 1.30469 8.69742 1.30469 8.74141C1.30469 8.78539 1.34034 8.82104 1.38433 8.82104C1.42831 8.82104 1.46396 8.78539 1.46396 8.74141Z" fill="black"/>
<path d="M1.46396 8.50899C1.46396 8.465 1.42831 8.42935 1.38433 8.42935C1.34034 8.42935 1.30469 8.465 1.30469 8.50899C1.30469 8.55297 1.34034 8.58862 1.38433 8.58862C1.42831 8.58862 1.46396 8.55297 1.46396 8.50899Z" fill="black"/>
<path d="M1.46396 8.27669C1.46396 8.2327 1.42831 8.19705 1.38433 8.19705C1.34034 8.19705 1.30469 8.2327 1.30469 8.27669C1.30469 8.32067 1.34034 8.35632 1.38433 8.35632C1.42831 8.35632 1.46396 8.32067 1.46396 8.27669Z" fill="black"/>
<path d="M1.46396 8.04439C1.46396 8.0004 1.42831 7.96475 1.38433 7.96475C1.34034 7.96475 1.30469 8.0004 1.30469 8.04439C1.30469 8.08837 1.34034 8.12402 1.38433 8.12402C1.42831 8.12402 1.46396 8.08837 1.46396 8.04439Z" fill="black"/>
<path d="M1.46396 7.8105C1.46396 7.76652 1.42831 7.73086 1.38433 7.73086C1.34034 7.73086 1.30469 7.76652 1.30469 7.8105C1.30469 7.85448 1.34034 7.89014 1.38433 7.89014C1.42831 7.89014 1.46396 7.85448 1.46396 7.8105Z" fill="black"/>
<path d="M1.46396 7.5782C1.46396 7.53421 1.42831 7.49856 1.38433 7.49856C1.34034 7.49856 1.30469 7.53421 1.30469 7.5782C1.30469 7.62218 1.34034 7.65784 1.38433 7.65784C1.42831 7.65784 1.46396 7.62218 1.46396 7.5782Z" fill="black"/>
<path d="M1.46396 7.34578C1.46396 7.30179 1.42831 7.26614 1.38433 7.26614C1.34034 7.26614 1.30469 7.30179 1.30469 7.34578C1.30469 7.38976 1.34034 7.42542 1.38433 7.42542C1.42831 7.42542 1.46396 7.38976 1.46396 7.34578Z" fill="black"/>
<path d="M1.46396 7.11348C1.46396 7.06949 1.42831 7.03384 1.38433 7.03384C1.34034 7.03384 1.30469 7.06949 1.30469 7.11348C1.30469 7.15746 1.34034 7.19312 1.38433 7.19312C1.42831 7.19312 1.46396 7.15746 1.46396 7.11348Z" fill="black"/>
<path d="M1.46396 6.88069C1.46396 6.83671 1.42831 6.80105 1.38433 6.80105C1.34034 6.80105 1.30469 6.83671 1.30469 6.88069C1.30469 6.92467 1.34034 6.96033 1.38433 6.96033C1.42831 6.96033 1.46396 6.92467 1.46396 6.88069Z" fill="black"/>
<path d="M0.234863 2.51583L0.234863 14.4837C0.234863 15.4511 1.0187 16.2349 1.98601 16.2349H25.4837C26.451 16.2349 27.2349 15.451 27.2349 14.4837V2.51628C27.2349 1.54892 26.451 0.765133 25.4837 0.765133L1.98601 0.765133C1.0187 0.764637 0.234863 1.54847 0.234863 2.51583ZM1.27477 3.74016C1.27477 3.63349 1.36155 3.54671 1.46821 3.54671C1.57537 3.54671 1.66166 3.63394 1.66166 3.74016C1.66166 3.84732 1.57488 3.9336 1.46821 3.9336C1.36155 3.9341 1.27477 3.84732 1.27477 3.74016ZM1.10781 10.5712L1.10781 6.24623C1.10781 6.09305 1.23158 5.96978 1.38376 5.96978C1.53645 5.96978 1.65972 6.09305 1.65972 6.24623L1.65972 10.5712C1.65972 10.7244 1.53595 10.8477 1.38376 10.8477C1.23163 10.8472 1.10781 10.7244 1.10781 10.5712ZM26.0831 12.3357V12.7615C26.0831 12.7899 26.0599 12.8127 26.0314 12.8127C26.0035 12.8127 25.9797 12.7899 25.9797 12.7615V12.3357C25.9797 12.3068 26.0035 12.284 26.0314 12.284C26.0599 12.2845 26.0831 12.3073 26.0831 12.3357ZM25.8754 12.3357V12.7615C25.8754 12.7899 25.8527 12.8127 25.8242 12.8127C25.7958 12.8127 25.7725 12.7899 25.7725 12.7615V12.3357C25.7725 12.3068 25.7958 12.284 25.8242 12.284C25.8527 12.2845 25.8754 12.3073 25.8754 12.3357ZM26.0105 11.9772C26.0717 11.9772 26.1215 12.0265 26.1215 12.0877C26.1215 12.1489 26.0717 12.1987 26.0105 12.1987H25.645V12.899H26.0105C26.0717 12.899 26.1215 12.9483 26.1215 13.0095C26.1215 13.0707 26.0717 13.1204 26.0105 13.1204H25.5344C25.4733 13.1204 25.4235 13.0707 25.4235 13.0095V12.0877C25.4235 12.0265 25.4733 11.9772 25.5344 11.9772H26.0105ZM25.9764 7.11347C26.2182 7.11347 26.4141 7.30979 26.4141 7.55163V9.46686C26.4141 9.7092 26.2182 9.90502 25.9764 9.90502H25.5933C25.3514 9.90502 25.1556 9.7092 25.1556 9.46686V7.55163C25.1556 7.30979 25.3514 7.11347 25.5933 7.11347H25.9764ZM26.1424 4.25463V4.60224C26.1424 4.66338 26.0926 4.71272 26.0314 4.71272C25.9703 4.71272 25.9209 4.66343 25.9209 4.60224V4.25463C25.9209 4.1797 25.8626 4.11906 25.791 4.11906C25.7194 4.11906 25.6616 4.17975 25.6616 4.25463V4.5477C25.6768 4.55861 25.6844 4.57234 25.6862 4.59699C25.6895 4.60313 25.6848 4.6136 25.6815 4.62113L25.6051 4.80183C25.5956 4.82365 25.5743 4.83833 25.5506 4.83833C25.5269 4.83833 25.505 4.8241 25.496 4.80228L25.4197 4.62158C25.4102 4.59981 25.4154 4.57368 25.4325 4.55662C25.4349 4.55424 25.4373 4.55186 25.4401 4.54998V4.25453C25.4401 4.05772 25.598 3.898 25.7915 3.898C25.985 3.8981 26.1424 4.05782 26.1424 4.25463ZM24.6079 1.93258V15.2135L2.93487 15.2135L2.93487 1.93258L24.6079 1.93258V1.93258Z" fill="black"/>
</svg>
