<svg width="38" height="27" viewBox="0 0 38 27" fill="none" xmlns="http://www.w3.org/2000/svg">
<path d="M36.119 0H1.10131C0.494099 0 0 0.49376 0 1.10097V20.5049C0 20.5049 0.000677311 20.5056 0.000677311 20.5063V21.4758C0.000677311 21.8345 0.290905 22.1247 0.648864 22.1247H14.9808C14.9225 23.4008 14.6408 25.9617 13.3159 26.5232C13.3159 26.5232 12.8019 27 14.2405 27H16.7028H20.0965H22.5595C23.9982 27 23.4841 26.5232 23.4841 26.5232C22.1593 25.9617 21.8768 23.4004 21.8192 22.1247H36.5826C36.9419 22.1247 37.2162 21.8345 37.2162 21.4758V20.5354C37.2162 20.5249 37.2189 20.5151 37.2189 20.5049V1.10097C37.2196 0.49376 36.7262 0 36.119 0ZM17.9044 21.9107C17.9044 21.6076 18.1499 21.3624 18.4527 21.3624C18.7558 21.3624 19.001 21.6079 19.001 21.9107C19.001 22.2134 18.7554 22.459 18.4527 22.459C18.1499 22.459 17.9044 22.2138 17.9044 21.9107ZM36.119 20.6255H1.10131V1.18767C1.10131 1.10165 1.17073 1.03154 1.25675 1.03154H35.9629C36.0489 1.03154 36.119 1.10165 36.119 1.18767V20.6255Z" fill="black"/>
</svg>
