<svg width="21" height="27" viewBox="0 0 21 27" fill="none" xmlns="http://www.w3.org/2000/svg">
<path d="M1.66736 0C0.746075 0 0 0.746075 0 1.66736V25.3044C0 26.2398 0.760205 27 1.69562 27H19.2934C20.2288 27 20.989 26.2398 20.989 25.3044V1.66736C20.989 0.746075 20.243 0 19.3216 0H1.66736ZM10.4959 25.3242C9.8346 25.3242 9.30047 24.79 9.30047 24.1288C9.30047 23.4675 9.83457 22.9333 10.4959 22.9333C11.1572 22.9333 11.6913 23.4674 11.6913 24.1288C11.6913 24.79 11.1572 25.3242 10.4959 25.3242ZM18.844 20.5001C18.844 20.9692 18.4654 21.3479 17.9962 21.3479H2.9956C2.52648 21.3479 2.14779 20.9692 2.14779 20.5001V2.96452C2.14779 2.49539 2.52648 2.11671 2.9956 2.11671H17.9934C18.4626 2.11671 18.8412 2.49539 18.8412 2.96452V20.5001H18.844Z" fill="black"/>
</svg>
