<svg width="470" height="98" viewBox="0 0 470 98" fill="none" xmlns="http://www.w3.org/2000/svg">
<path d="M97.6849 30.0405L120.245 52.7193L97.5662 75.2794L75.0061 52.6006L97.6849 30.0405Z" fill="#2A205E"/>
<path d="M75.1168 52.4233L97.6769 75.1021L78.5429 94.136C76.5852 96.0835 73.4194 96.0752 71.4719 94.1174L55.9643 78.5283C54.0168 76.5705 54.0251 73.4047 55.9828 71.4572L75.1168 52.4233Z" fill="#01CEAA"/>
<path d="M116.9 11.0155C118.858 9.06801 122.024 9.07632 123.972 11.0341L139.479 26.6232C141.427 28.581 141.418 31.7468 139.461 33.6943L120.327 52.7281L97.7665 30.0494L116.9 11.0155Z" fill="#FF6428"/>
<rect x="45.2469" y="22.5518" width="31.9888" height="31.9888" transform="rotate(45.1503 45.2469 22.5518)" fill="#2A205E"/>
<path d="M22.6788 45.1318L45.2389 67.8106L26.1049 86.8445C24.1472 88.792 20.9814 88.7837 19.0339 86.8259L3.52626 71.2367C1.57877 69.279 1.58707 66.1132 3.54481 64.1657L22.6788 45.1318Z" fill="#42B3FF"/>
<path d="M64.4623 3.52625C66.4201 1.57876 69.5859 1.58706 71.5334 3.54479L87.041 19.134C88.9885 21.0917 88.9802 24.2575 87.0225 26.205L67.8885 45.2389L45.3284 22.5601L64.4623 3.52625Z" fill="#FFB800"/>
<path d="M177.195 71V39.5H188.22C190.68 39.5 192.72 39.92 194.34 40.76C195.96 41.57 197.16 42.695 197.94 44.135C198.75 45.545 199.155 47.15 199.155 48.95C199.155 50.66 198.765 52.235 197.985 53.675C197.235 55.085 196.05 56.21 194.43 57.05C192.81 57.89 190.74 58.31 188.22 58.31H181.965V71H177.195ZM181.965 54.395H187.995C190.245 54.395 191.85 53.915 192.81 52.955C193.8 51.965 194.295 50.63 194.295 48.95C194.295 47.21 193.8 45.86 192.81 44.9C191.85 43.91 190.245 43.415 187.995 43.415H181.965V54.395ZM203.69 71V48.68H207.965L208.37 52.91C209.15 51.44 210.23 50.285 211.61 49.445C213.02 48.575 214.715 48.14 216.695 48.14V53.135H215.39C214.07 53.135 212.885 53.36 211.835 53.81C210.815 54.23 209.99 54.965 209.36 56.015C208.76 57.035 208.46 58.46 208.46 60.29V71H203.69ZM230.609 71.54C228.479 71.54 226.559 71.06 224.849 70.1C223.169 69.11 221.834 67.745 220.844 66.005C219.854 64.235 219.359 62.18 219.359 59.84C219.359 57.5 219.854 55.46 220.844 53.72C221.864 51.95 223.229 50.585 224.939 49.625C226.649 48.635 228.554 48.14 230.654 48.14C232.784 48.14 234.689 48.635 236.369 49.625C238.079 50.585 239.429 51.95 240.419 53.72C241.439 55.46 241.949 57.5 241.949 59.84C241.949 62.18 241.439 64.235 240.419 66.005C239.429 67.745 238.079 69.11 236.369 70.1C234.659 71.06 232.739 71.54 230.609 71.54ZM230.609 67.445C231.749 67.445 232.799 67.16 233.759 66.59C234.749 66.02 235.544 65.18 236.144 64.07C236.744 62.93 237.044 61.52 237.044 59.84C237.044 58.16 236.744 56.765 236.144 55.655C235.574 54.515 234.794 53.66 233.804 53.09C232.844 52.52 231.794 52.235 230.654 52.235C229.514 52.235 228.449 52.52 227.459 53.09C226.499 53.66 225.719 54.515 225.119 55.655C224.519 56.765 224.219 58.16 224.219 59.84C224.219 61.52 224.519 62.93 225.119 64.07C225.719 65.18 226.499 66.02 227.459 66.59C228.419 67.16 229.469 67.445 230.609 67.445ZM255.056 64.16C253.886 64.16 252.806 64.025 251.816 63.755L249.881 65.645C250.211 65.855 250.616 66.035 251.096 66.185C251.576 66.335 252.251 66.47 253.121 66.59C253.991 66.71 255.176 66.83 256.676 66.95C259.646 67.22 261.791 67.94 263.111 69.11C264.431 70.25 265.091 71.78 265.091 73.7C265.091 75.02 264.731 76.265 264.011 77.435C263.321 78.635 262.226 79.595 260.726 80.315C259.256 81.065 257.366 81.44 255.056 81.44C251.936 81.44 249.401 80.84 247.451 79.64C245.531 78.47 244.571 76.685 244.571 74.285C244.571 73.355 244.811 72.425 245.291 71.495C245.801 70.595 246.596 69.74 247.676 68.93C247.046 68.66 246.491 68.375 246.011 68.075C245.561 67.745 245.156 67.415 244.796 67.085V66.005L248.666 62.045C246.926 60.545 246.056 58.58 246.056 56.15C246.056 54.68 246.401 53.345 247.091 52.145C247.811 50.915 248.846 49.94 250.196 49.22C251.546 48.5 253.166 48.14 255.056 48.14C256.316 48.14 257.486 48.32 258.566 48.68H266.891V51.83L262.931 52.055C263.651 53.285 264.011 54.65 264.011 56.15C264.011 57.65 263.651 59 262.931 60.2C262.241 61.4 261.221 62.36 259.871 63.08C258.551 63.8 256.946 64.16 255.056 64.16ZM255.056 60.425C256.436 60.425 257.546 60.065 258.386 59.345C259.256 58.595 259.691 57.545 259.691 56.195C259.691 54.815 259.256 53.765 258.386 53.045C257.546 52.325 256.436 51.965 255.056 51.965C253.646 51.965 252.506 52.325 251.636 53.045C250.796 53.765 250.376 54.815 250.376 56.195C250.376 57.545 250.796 58.595 251.636 59.345C252.506 60.065 253.646 60.425 255.056 60.425ZM249.071 73.835C249.071 75.125 249.641 76.085 250.781 76.715C251.921 77.375 253.346 77.705 255.056 77.705C256.706 77.705 258.041 77.345 259.061 76.625C260.081 75.935 260.591 75.005 260.591 73.835C260.591 72.965 260.246 72.215 259.556 71.585C258.866 70.985 257.561 70.61 255.641 70.46C254.201 70.37 252.926 70.235 251.816 70.055C250.766 70.625 250.046 71.24 249.656 71.9C249.266 72.56 249.071 73.205 249.071 73.835ZM271.146 71V48.68H275.421L275.826 52.91C276.606 51.44 277.686 50.285 279.066 49.445C280.476 48.575 282.171 48.14 284.151 48.14V53.135H282.846C281.526 53.135 280.341 53.36 279.291 53.81C278.271 54.23 277.446 54.965 276.816 56.015C276.216 57.035 275.916 58.46 275.916 60.29V71H271.146ZM295.801 71.54C293.911 71.54 292.351 71.225 291.121 70.595C289.891 69.965 288.976 69.14 288.376 68.12C287.776 67.07 287.476 65.93 287.476 64.7C287.476 62.54 288.316 60.83 289.996 59.57C291.676 58.31 294.076 57.68 297.196 57.68H303.046V57.275C303.046 55.535 302.566 54.23 301.606 53.36C300.676 52.49 299.461 52.055 297.961 52.055C296.641 52.055 295.486 52.385 294.496 53.045C293.536 53.675 292.951 54.62 292.741 55.88H287.971C288.121 54.26 288.661 52.88 289.591 51.74C290.551 50.57 291.751 49.685 293.191 49.085C294.661 48.455 296.266 48.14 298.006 48.14C301.126 48.14 303.541 48.965 305.251 50.615C306.961 52.235 307.816 54.455 307.816 57.275V71H303.676L303.271 67.175C302.641 68.405 301.726 69.44 300.526 70.28C299.326 71.12 297.751 71.54 295.801 71.54ZM296.746 67.67C298.036 67.67 299.116 67.37 299.986 66.77C300.886 66.14 301.576 65.315 302.056 64.295C302.566 63.275 302.881 62.15 303.001 60.92H297.691C295.801 60.92 294.451 61.25 293.641 61.91C292.861 62.57 292.471 63.395 292.471 64.385C292.471 65.405 292.846 66.215 293.596 66.815C294.376 67.385 295.426 67.67 296.746 67.67ZM313.377 71V48.68H317.607L318.012 51.83C318.732 50.69 319.677 49.79 320.847 49.13C322.047 48.47 323.427 48.14 324.987 48.14C328.527 48.14 330.987 49.535 332.367 52.325C333.177 51.035 334.257 50.015 335.607 49.265C336.987 48.515 338.472 48.14 340.062 48.14C342.852 48.14 345.042 48.98 346.632 50.66C348.222 52.34 349.017 54.845 349.017 58.175V71H344.247V58.67C344.247 54.35 342.597 52.19 339.297 52.19C337.617 52.19 336.237 52.82 335.157 54.08C334.107 55.34 333.582 57.14 333.582 59.48V71H328.812V58.67C328.812 54.35 327.147 52.19 323.817 52.19C322.167 52.19 320.802 52.82 319.722 54.08C318.672 55.34 318.147 57.14 318.147 59.48V71H313.377ZM362.158 71.54C360.268 71.54 358.708 71.225 357.478 70.595C356.248 69.965 355.333 69.14 354.733 68.12C354.133 67.07 353.833 65.93 353.833 64.7C353.833 62.54 354.673 60.83 356.353 59.57C358.033 58.31 360.433 57.68 363.553 57.68H369.403V57.275C369.403 55.535 368.923 54.23 367.963 53.36C367.033 52.49 365.818 52.055 364.318 52.055C362.998 52.055 361.843 52.385 360.853 53.045C359.893 53.675 359.308 54.62 359.098 55.88H354.328C354.478 54.26 355.018 52.88 355.948 51.74C356.908 50.57 358.108 49.685 359.548 49.085C361.018 48.455 362.623 48.14 364.363 48.14C367.483 48.14 369.898 48.965 371.608 50.615C373.318 52.235 374.173 54.455 374.173 57.275V71H370.033L369.628 67.175C368.998 68.405 368.083 69.44 366.883 70.28C365.683 71.12 364.108 71.54 362.158 71.54ZM363.103 67.67C364.393 67.67 365.473 67.37 366.343 66.77C367.243 66.14 367.933 65.315 368.413 64.295C368.923 63.275 369.238 62.15 369.358 60.92H364.048C362.158 60.92 360.808 61.25 359.998 61.91C359.218 62.57 358.828 63.395 358.828 64.385C358.828 65.405 359.203 66.215 359.953 66.815C360.733 67.385 361.783 67.67 363.103 67.67ZM390.31 71.54C388.12 71.54 386.155 71.045 384.415 70.055C382.705 69.065 381.355 67.7 380.365 65.96C379.405 64.19 378.925 62.15 378.925 59.84C378.925 57.53 379.405 55.505 380.365 53.765C381.355 51.995 382.705 50.615 384.415 49.625C386.155 48.635 388.12 48.14 390.31 48.14C393.07 48.14 395.38 48.86 397.24 50.3C399.13 51.74 400.345 53.69 400.885 56.15H395.89C395.59 54.92 394.93 53.96 393.91 53.27C392.89 52.58 391.69 52.235 390.31 52.235C389.14 52.235 388.06 52.535 387.07 53.135C386.08 53.705 385.285 54.56 384.685 55.7C384.085 56.81 383.785 58.19 383.785 59.84C383.785 61.49 384.085 62.885 384.685 64.025C385.285 65.135 386.08 65.99 387.07 66.59C388.06 67.19 389.14 67.49 390.31 67.49C391.69 67.49 392.89 67.145 393.91 66.455C394.93 65.765 395.59 64.79 395.89 63.53H400.885C400.375 65.93 399.175 67.865 397.285 69.335C395.395 70.805 393.07 71.54 390.31 71.54ZM408.758 44.45C407.858 44.45 407.108 44.18 406.508 43.64C405.938 43.07 405.653 42.365 405.653 41.525C405.653 40.685 405.938 39.995 406.508 39.455C407.108 38.885 407.858 38.6 408.758 38.6C409.658 38.6 410.393 38.885 410.963 39.455C411.563 39.995 411.863 40.685 411.863 41.525C411.863 42.365 411.563 43.07 410.963 43.64C410.393 44.18 409.658 44.45 408.758 44.45ZM406.373 71V48.68H411.143V71H406.373ZM427.88 71.54C425.75 71.54 423.83 71.06 422.12 70.1C420.44 69.11 419.105 67.745 418.115 66.005C417.125 64.235 416.63 62.18 416.63 59.84C416.63 57.5 417.125 55.46 418.115 53.72C419.135 51.95 420.5 50.585 422.21 49.625C423.92 48.635 425.825 48.14 427.925 48.14C430.055 48.14 431.96 48.635 433.64 49.625C435.35 50.585 436.7 51.95 437.69 53.72C438.71 55.46 439.22 57.5 439.22 59.84C439.22 62.18 438.71 64.235 437.69 66.005C436.7 67.745 435.35 69.11 433.64 70.1C431.93 71.06 430.01 71.54 427.88 71.54ZM427.88 67.445C429.02 67.445 430.07 67.16 431.03 66.59C432.02 66.02 432.815 65.18 433.415 64.07C434.015 62.93 434.315 61.52 434.315 59.84C434.315 58.16 434.015 56.765 433.415 55.655C432.845 54.515 432.065 53.66 431.075 53.09C430.115 52.52 429.065 52.235 427.925 52.235C426.785 52.235 425.72 52.52 424.73 53.09C423.77 53.66 422.99 54.515 422.39 55.655C421.79 56.765 421.49 58.16 421.49 59.84C421.49 61.52 421.79 62.93 422.39 64.07C422.99 65.18 423.77 66.02 424.73 66.59C425.69 67.16 426.74 67.445 427.88 67.445ZM426.665 46.835V43.415L436.475 37.835V41.795L426.665 46.835ZM444.378 71V48.68H448.608L448.968 52.595C449.658 51.215 450.663 50.135 451.983 49.355C453.333 48.545 454.878 48.14 456.618 48.14C459.318 48.14 461.433 48.98 462.963 50.66C464.523 52.34 465.303 54.845 465.303 58.175V71H460.578V58.67C460.578 54.35 458.808 52.19 455.268 52.19C453.498 52.19 452.028 52.82 450.858 54.08C449.718 55.34 449.148 57.14 449.148 59.48V71H444.378Z" fill="#2A205E"/>
</svg>
